<svg xmlns="http://www.w3.org/2000/svg" viewBox="0 0 33.304 33.307" fill="white">
  <g id="Group_1" data-name="Group 1" transform="translate(-143.121 -300.592)">
    <path id="Path_2" data-name="Path 2" class="cls-1" d="M151.164,317.249a8.608,8.608,0,1,0,8.608-8.61A8.617,8.617,0,0,0,151.164,317.249Z"/>
    <path id="Path_3" data-name="Path 3" class="cls-1" d="M148.52,317.247a1,1,0,0,0-1-1h-3.4a1,1,0,1,0,0,2h3.4A1,1,0,0,0,148.52,317.247Z"/>
    <path id="Path_4" data-name="Path 4" class="cls-1" d="M175.425,316.247h-3.4a1,1,0,0,0,0,2h3.4a1,1,0,0,0,0-2Z"/>
    <path id="Path_5" data-name="Path 5" class="cls-1" d="M148.662,322.508l-2.946,1.7a1,1,0,0,0,1,1.733l2.946-1.7a1,1,0,0,0-1-1.733Z"/>
    <path id="Path_6" data-name="Path 6" class="cls-1" d="M170.383,312.122a1,1,0,0,0,.5-.133l2.947-1.7a1,1,0,1,0-1-1.733l-2.947,1.7a1,1,0,0,0,.5,1.866Z"/>
    <path id="Path_7" data-name="Path 7" class="cls-1" d="M154.147,326.993a1,1,0,0,0-1.366.365l-1.7,2.945a1,1,0,1,0,1.732,1l1.7-2.945A1,1,0,0,0,154.147,326.993Z"/>
    <path id="Path_8" data-name="Path 8" class="cls-1" d="M168.1,302.827a1,1,0,0,0-1.366.365l-1.7,2.943a1,1,0,1,0,1.732,1l1.7-2.943A1,1,0,0,0,168.1,302.827Z"/>
    <path id="Rectangle_2" data-name="Rectangle 2" class="cls-1" d="M1,0H1A1,1,0,0,1,2,1V4.4a1,1,0,0,1-1,1H1a1,1,0,0,1-1-1V1A1,1,0,0,1,1,0Z" transform="translate(158.773 328.499)"/>
    <path id="Path_9" data-name="Path 9" class="cls-1" d="M159.772,305.995a1,1,0,0,0,1-1v-3.4a1,1,0,0,0-2,0v3.4A1,1,0,0,0,159.772,305.995Z"/>
    <path id="Path_10" data-name="Path 10" class="cls-1" d="M166.765,327.356a1,1,0,0,0-1.732,1l1.7,2.947a1,1,0,1,0,1.732-1Z"/>
    <path id="Path_11" data-name="Path 11" class="cls-1" d="M152.781,307.135a1,1,0,1,0,1.732-1l-1.7-2.945a1,1,0,0,0-1.732,1Z"/>
    <path id="Path_12" data-name="Path 12" class="cls-1" d="M173.829,324.209l-2.947-1.7a1,1,0,0,0-1,1.733l2.947,1.7a1,1,0,0,0,1-1.733Z"/>
    <path id="Path_13" data-name="Path 13" class="cls-1" d="M149.662,310.254l-2.946-1.7a1,1,0,1,0-1,1.733l2.946,1.7a1,1,0,0,0,1-1.733Z"/>
  </g>
</svg>
