<svg xmlns="http://www.w3.org/2000/svg" viewBox="0 0 43.614 37.557" fill="white">
  <g id="Group_4" data-name="Group 4" transform="translate(-77.966 -18.241)">
    <g id="Group_4-2" data-name="Group 4">
      <path id="Path_17" data-name="Path 17" class="cls-1" d="M105.823,26.041A8.468,8.468,0,0,0,98,30.345l1.748.971a6.428,6.428,0,0,1,5.959-3.278,6.4,6.4,0,0,1,5.669,8.463l1.891.652a8.39,8.39,0,0,0-7.445-11.112Z"/>
      <path id="Path_18" data-name="Path 18" class="cls-1" d="M120.567,34.3l-3.3-.191a1,1,0,0,0-.115,2l3.3.191h.059a1,1,0,0,0,.056-2Z"/>
      <path id="Path_19" data-name="Path 19" class="cls-1" d="M119.366,28.485a1,1,0,0,0-.9-1.787l-2.951,1.482a1,1,0,0,0,.9,1.787Z"/>
      <path id="Path_20" data-name="Path 20" class="cls-1" d="M114.237,20.88a1,1,0,0,0-1.385.286l-1.814,2.758a1,1,0,1,0,1.672,1.1l1.813-2.758A1,1,0,0,0,114.237,20.88Z"/>
      <path id="Path_21" data-name="Path 21" class="cls-1" d="M105.97,23.537h.058a1,1,0,0,0,1-.942l.192-3.3a1,1,0,0,0-.941-1.056,1.01,1.01,0,0,0-1.055.94l-.192,3.3A1,1,0,0,0,105.97,23.537Z"/>
      <path id="Path_22" data-name="Path 22" class="cls-1" d="M100,24.783a1,1,0,0,0,.893-1.449l-1.483-2.95a1,1,0,1,0-1.787.9L99.1,24.232A1,1,0,0,0,100,24.783Z"/>
      <path id="Path_23" data-name="Path 23" class="cls-1" d="M95.946,27.042l-2.759-1.813a1,1,0,1,0-1.1,1.671l2.759,1.813a1,1,0,1,0,1.1-1.671Z"/>
    </g>
    <path id="Path_24" data-name="Path 24" class="cls-1" d="M111.577,55.8H84.969a7,7,0,0,1-.062-14,13,13,0,0,1,24.122-5.666,9.884,9.884,0,0,1,2.548-.336,10,10,0,0,1,0,20.006Z"/>
  </g>
</svg>
