<svg xmlns="http://www.w3.org/2000/svg" viewBox="0 0 43.614 37.589">
  <g id="Group_2" data-name="Group 2" transform="translate(-137.966 -18.241)">
    <path id="Path_14" fill="white" data-name="Path 14" class="cls-1" d="M177.175,39.167l-1.158-1.631a9.986,9.986,0,0,0,2.793-3.045,11.646,11.646,0,0,1-1.708.126A11.855,11.855,0,0,1,165.26,22.776,11.66,11.66,0,0,1,165.4,21a9.83,9.83,0,0,0-4.9,8.5,10.075,10.075,0,0,0,.086,1.313l-1.982.262a11.983,11.983,0,0,1-.1-1.575,11.833,11.833,0,0,1,8.042-11.209,1,1,0,0,1,1.267,1.273,9.825,9.825,0,0,0,12.452,12.525,1,1,0,0,1,1.266,1.273A11.817,11.817,0,0,1,177.175,39.167Z"/>
    <path id="Path_15" fill="white" data-name="Path 15" class="cls-1" d="M171.577,55.83H144.969a7,7,0,0,1-.062-14,13,13,0,0,1,24.122-5.666,9.842,9.842,0,0,1,2.548-.337,10,10,0,1,1,0,20.006Z"/>
  </g>
</svg>
