<svg xmlns="http://www.w3.org/2000/svg" width="43.614" height="30.742" viewBox="0 0 43.614 30.742" fill="white">
  <g id="Group_6" data-name="Group 6" transform="translate(-17.966 -239.815)">
    <path id="Path_27" data-name="Path 27" class="cls-1" d="M61.58,255.819a10.013,10.013,0,0,0-10-10,9.884,9.884,0,0,0-2.548.336,13,13,0,0,0-24.122,5.666,7,7,0,0,0,.062,14h1.783a5.185,5.185,0,0,0,5.15,4.734H51.344a7.3,7.3,0,0,0,7.295-7.3c0-.121-.012-.24-.019-.361A10.008,10.008,0,0,0,61.58,255.819ZM51.344,268.557H31.9a3.2,3.2,0,1,1,.481-6.351l1.148.123v-1.165a7.388,7.388,0,0,1,14.093-3.107l.434.934.92-.459a5.242,5.242,0,0,1,2.366-.565,5.295,5.295,0,1,1,0,10.59Z"/>
  </g>
</svg>
