<svg xmlns="http://www.w3.org/2000/svg" width="43.615" height="53.515" viewBox="0 0 43.615 53.515" fill="white">
  <g id="Group_21" data-name="Group 21" transform="translate(-257.811 -158.261)">
    <g id="Group_37" data-name="Group 37">
      <path id="Path_116" data-name="Path 116" class="cls-1" d="M285.815,163.557l.059,0a1,1,0,0,0,1-.943l.191-3.3a1,1,0,1,0-2-.116l-.191,3.3A1,1,0,0,0,285.815,163.557Z"/>
      <path id="Path_117" data-name="Path 117" class="cls-1" d="M285.669,166.061a8.466,8.466,0,0,0-7.822,4.3l1.748.97a6.428,6.428,0,0,1,5.959-3.277,6.387,6.387,0,0,1,6.006,6.746,6.448,6.448,0,0,1-.337,1.717l1.89.652a8.392,8.392,0,0,0-7.444-11.113Z"/>
      <path id="Path_118" data-name="Path 118" class="cls-1" d="M300.413,174.317l-3.3-.193a1,1,0,1,0-.116,2l3.3.191.059,0a1,1,0,0,0,.057-2Z"/>
      <path id="Path_119" data-name="Path 119" class="cls-1" d="M299.212,168.506a1,1,0,1,0-.9-1.787l-2.951,1.481a1,1,0,1,0,.9,1.787Z"/>
      <path id="Path_120" data-name="Path 120" class="cls-1" d="M294.083,160.9a1,1,0,0,0-1.386.287l-1.813,2.757a1,1,0,1,0,1.672,1.1l1.813-2.759A1,1,0,0,0,294.083,160.9Z"/>
      <path id="Path_121" data-name="Path 121" class="cls-1" d="M279.843,164.8a1,1,0,0,0,.892-1.449l-1.482-2.952a1,1,0,1,0-1.787.9l1.482,2.951A1,1,0,0,0,279.843,164.8Z"/>
      <path id="Path_122" data-name="Path 122" class="cls-1" d="M275.792,167.063l-2.759-1.812a1,1,0,1,0-1.1,1.671l2.759,1.813a1,1,0,0,0,1.385-.287A1,1,0,0,0,275.792,167.063Z"/>
    </g>
    <path id="Path_123" data-name="Path 123" class="cls-1" d="M291.423,195.819H264.814a7.011,7.011,0,0,1-7-7,7.1,7.1,0,0,1,5.448-6.828,6.315,6.315,0,0,1,1.494-.174,13.163,13.163,0,0,1,4.513-8.875,12.752,12.752,0,0,1,8.452-3.129,12.949,12.949,0,0,1,11.157,6.338,9.878,9.878,0,0,1,2.548-.336,10,10,0,0,1,0,20.006Z"/>
    <g id="Group_38" data-name="Group 38">
      <path id="Path_124" data-name="Path 124" class="cls-1" d="M269.637,207l-3.073,3.072a1,1,0,1,0,1.414,1.414l3.073-3.072A1,1,0,0,0,269.637,207Z"/>
      <path id="Path_125" data-name="Path 125" class="cls-1" d="M267.777,199.965a1,1,0,0,0-1.414,0l-3.072,3.073a1,1,0,1,0,1.414,1.414l3.072-3.073A1,1,0,0,0,267.777,199.965Z"/>
      <path id="Path_126" data-name="Path 126" class="cls-1" d="M281.779,207l-3.072,3.072a1,1,0,1,0,1.414,1.414l3.072-3.072A1,1,0,0,0,281.779,207Z"/>
      <path id="Path_127" data-name="Path 127" class="cls-1" d="M279.92,199.965a1,1,0,0,0-1.414,0l-3.072,3.073a1,1,0,1,0,1.414,1.414l3.072-3.073A1,1,0,0,0,279.92,199.965Z"/>
      <path id="Path_128" data-name="Path 128" class="cls-1" d="M292.062,199.965a1,1,0,0,0-1.414,0l-3.072,3.073a1,1,0,1,0,1.414,1.414l3.072-3.073A1,1,0,0,0,292.062,199.965Z"/>
    </g>
  </g>
</svg>
