<svg xmlns="http://www.w3.org/2000/svg" width="43.614" height="53.537" viewBox="0 0 43.614 53.537" fill="white">
  <g id="Group_22" data-name="Group 22" transform="translate(-317.754 -158.239)">
    <path id="Path_129" data-name="Path 129" class="cls-1" d="M356.963,179.167l-1.158-1.631a9.961,9.961,0,0,0,2.793-3.045,11.647,11.647,0,0,1-1.708.127,11.855,11.855,0,0,1-11.842-11.841,11.677,11.677,0,0,1,.137-1.78,9.832,9.832,0,0,0-4.9,8.505,10.117,10.117,0,0,0,.086,1.315l-1.982.262a12.014,12.014,0,0,1-.1-1.577,11.835,11.835,0,0,1,8.042-11.209,1,1,0,0,1,1.267,1.272,9.822,9.822,0,0,0,12.452,12.525,1,1,0,0,1,1.266,1.274A11.821,11.821,0,0,1,356.963,179.167Z"/>
    <path id="Path_130" data-name="Path 130" class="cls-1" d="M351.365,195.831H324.757a7,7,0,0,1-.062-14,13,13,0,0,1,24.122-5.666,9.885,9.885,0,0,1,2.548-.336,10,10,0,1,1,0,20.006Z"/>
    <g id="Group_40" data-name="Group 40">
      <path id="Path_131" data-name="Path 131" class="cls-1" d="M329.558,207l-3.073,3.072a1,1,0,1,0,1.414,1.414l3.073-3.072A1,1,0,1,0,329.558,207Z"/>
      <path id="Path_132" data-name="Path 132" class="cls-1" d="M327.7,199.965a1,1,0,0,0-1.414,0l-3.072,3.073a1,1,0,1,0,1.414,1.414l3.072-3.073A1,1,0,0,0,327.7,199.965Z"/>
      <path id="Path_133" data-name="Path 133" class="cls-1" d="M341.7,207l-3.072,3.072a1,1,0,1,0,1.414,1.414l3.072-3.072A1,1,0,1,0,341.7,207Z"/>
      <path id="Path_134" data-name="Path 134" class="cls-1" d="M339.841,199.965a1,1,0,0,0-1.414,0l-3.073,3.073a1,1,0,0,0,1.415,1.414l3.072-3.073A1,1,0,0,0,339.841,199.965Z"/>
      <path id="Path_135" data-name="Path 135" class="cls-1" d="M351.983,199.965a1,1,0,0,0-1.414,0l-3.072,3.073a1,1,0,1,0,1.414,1.414l3.072-3.073A1,1,0,0,0,351.983,199.965Z"/>
    </g>
  </g>
</svg>
