<?xml version="1.0" standalone="no"?>
<!DOCTYPE svg PUBLIC "-//W3C//DTD SVG 20010904//EN"
 "http://www.w3.org/TR/2001/REC-SVG-20010904/DTD/svg10.dtd">
<svg version="1.0" xmlns="http://www.w3.org/2000/svg"
 width="512.000000pt" height="512.000000pt" viewBox="0 0 512.000000 512.000000"
 preserveAspectRatio="xMidYMid meet">
<metadata>
Created by potrace 1.11, written by Peter Selinger 2001-2013
</metadata>
<g transform="translate(0.000000,512.000000) scale(0.100000,-0.100000)"
fill="#000000" stroke="none">
<path d="M3179 4552 c-36 -25 -39 -37 -53 -217 -18 -219 -18 -255 -2 -280 34
-52 89 -72 141 -51 50 21 73 69 80 164 3 45 8 99 10 120 16 160 15 187 -4 219
-36 58 -122 80 -172 45z"/>
<path d="M2405 4401 c-50 -14 -85 -58 -85 -106 0 -14 12 -52 27 -83 15 -31 50
-109 78 -171 31 -69 61 -122 77 -134 33 -25 95 -38 122 -26 32 15 58 57 58 93
0 39 -144 362 -175 394 -26 26 -73 41 -102 33z"/>
<path d="M3990 4287 c-24 -11 -59 -45 -60 -58 0 -3 -31 -57 -70 -120 -71 -116
-105 -184 -104 -206 1 -7 2 -20 3 -29 2 -22 60 -72 92 -79 51 -12 70 10 275
312 46 67 50 99 19 146 -29 44 -100 60 -155 34z"/>
<path d="M1734 3824 c-35 -17 -63 -67 -57 -104 8 -53 18 -61 316 -248 47 -29
58 -32 112 -28 33 3 61 5 62 5 1 1 9 14 18 31 19 37 19 80 0 107 -20 29 -353
239 -390 247 -18 3 -42 0 -61 -10z"/>
<path d="M2935 3705 c-111 -28 -205 -71 -296 -131 -76 -51 -179 -149 -217
-206 -22 -34 -29 -38 -71 -40 -192 -6 -358 -38 -500 -94 -202 -81 -347 -177
-496 -328 -167 -169 -269 -347 -340 -591 -22 -76 -26 -100 -41 -205 -3 -25 -7
-46 -8 -48 -2 -1 -23 -5 -47 -8 -161 -21 -253 -52 -357 -122 -125 -86 -203
-174 -265 -302 -57 -115 -77 -208 -72 -337 3 -113 4 -122 31 -211 46 -159 165
-315 311 -409 66 -42 169 -86 228 -98 22 -4 51 -10 65 -13 34 -7 3030 -7 3100
0 160 17 368 98 491 191 297 223 456 541 444 887 -2 63 -6 126 -9 140 -2 14
-7 43 -11 64 -12 69 -62 204 -105 284 -79 146 -180 262 -315 362 -51 37 -181
110 -221 123 -10 3 -37 13 -58 21 -22 8 -61 20 -88 26 -26 7 -46 15 -44 18 8
13 17 88 17 147 2 228 -83 453 -235 622 -205 227 -586 338 -891 258z"/>
<path d="M4559 3674 c-19 -7 -42 -16 -51 -20 -10 -3 -18 -10 -18 -15 0 -5 -4
-9 -9 -9 -22 0 -254 -135 -272 -159 -38 -48 -7 -144 54 -165 21 -8 36 -5 69
11 24 12 84 40 133 63 50 22 120 55 157 72 36 17 71 40 78 52 35 67 -9 158
-86 178 -11 3 -36 -1 -55 -8z"/>
<path d="M4383 2855 c-43 -18 -63 -52 -59 -99 5 -47 43 -89 83 -92 15 -1 60
-5 98 -8 78 -7 202 -17 255 -20 39 -3 86 17 112 47 23 26 33 80 18 106 -21 40
-45 45 -335 66 -44 4 -94 8 -110 10 -17 2 -45 -3 -62 -10z"/>
</g>
</svg>
